<svg width="32" height="33" viewBox="0 0 32 33" fill="none" xmlns="http://www.w3.org/2000/svg">
<path d="M27 0H5C2.23858 0 0 2.28812 0 5.11066V27.5975C0 30.4201 2.23858 32.7082 5 32.7082H27C29.7614 32.7082 32 30.4201 32 27.5975V5.11066C32 2.28812 29.7614 0 27 0Z" fill="#030C10"/>
<path d="M24 16.3541C24 11.8567 20.4 8.177 16 8.177C11.6 8.177 8 11.8567 8 16.3541C8 20.4426 10.9 23.8156 14.7 24.4289V18.705H12.7V16.3541H14.7V14.5142C14.7 12.47 15.9 11.3456 17.7 11.3456C18.6 11.3456 19.5 11.55 19.5 11.55V13.5943H18.5C17.5 13.5943 17.2 14.2076 17.2 14.8209V16.3541H19.4L19 18.705H17.1V24.5311C21.1 23.9178 24 20.4426 24 16.3541Z" fill="white"/>
</svg>
