<svg width="32" height="33" viewBox="0 0 32 33" fill="none" xmlns="http://www.w3.org/2000/svg">
<path d="M27 0H5C2.23858 0 0 2.28812 0 5.11066V27.5975C0 30.4201 2.23858 32.7082 5 32.7082H27C29.7614 32.7082 32 30.4201 32 27.5975V5.11066C32 2.28812 29.7614 0 27 0Z" fill="#030C10"/>
<path d="M16 9.40356C18.2 9.40356 18.5 9.40356 19.4 9.40356C20.2 9.40356 20.6 9.60798 20.9 9.7102C21.3 9.91462 21.6 10.0168 21.9 10.3235C22.2 10.6301 22.4 10.9368 22.5 11.3456C22.6 11.6522 22.7 12.0611 22.8 12.8788C22.8 13.7987 22.8 14.0031 22.8 16.3541C22.8 18.705 22.8 18.9094 22.8 19.8293C22.8 20.647 22.6 21.0559 22.5 21.3625C22.3 21.7713 22.2 22.078 21.9 22.3846C21.6 22.6913 21.3 22.8957 20.9 22.9979C20.6 23.1001 20.2 23.2023 19.4 23.3045C18.5 23.3045 18.3 23.3045 16 23.3045C13.7 23.3045 13.5 23.3045 12.6 23.3045C11.8 23.3045 11.4 23.1001 11.1 22.9979C10.7 22.7935 10.4 22.6913 10.1 22.3846C9.8 22.078 9.6 21.7713 9.5 21.3625C9.4 21.0559 9.3 20.647 9.2 19.8293C9.2 18.9094 9.2 18.705 9.2 16.3541C9.2 14.0031 9.2 13.7987 9.2 12.8788C9.2 12.0611 9.4 11.6522 9.5 11.3456C9.7 10.9368 9.8 10.6301 10.1 10.3235C10.4 10.0168 10.7 9.81241 11.1 9.7102C11.4 9.60798 11.8 9.50577 12.6 9.40356C13.5 9.40356 13.8 9.40356 16 9.40356ZM16 7.87036C13.7 7.87036 13.5 7.87036 12.6 7.87036C11.7 7.87036 11.1 8.07479 10.6 8.27921C10.1 8.48364 9.6 8.79028 9.1 9.30135C8.6 9.81241 8.4 10.2213 8.1 10.8345C7.9 11.3456 7.8 11.9589 7.7 12.8788C7.7 13.7987 7.7 14.1054 7.7 16.3541C7.7 18.705 7.7 18.9094 7.7 19.8293C7.7 20.7492 7.9 21.3625 8.1 21.8736C8.3 22.3846 8.6 22.8957 9.1 23.4068C9.6 23.9178 10 24.1222 10.6 24.4289C11.1 24.6333 11.7 24.7355 12.6 24.8377C13.5 24.8377 13.8 24.8377 16 24.8377C18.2 24.8377 18.5 24.8377 19.4 24.8377C20.3 24.8377 20.9 24.6333 21.4 24.4289C21.9 24.2245 22.4 23.9178 22.9 23.4068C23.4 22.8957 23.6 22.4868 23.9 21.8736C24.1 21.3625 24.2 20.7492 24.3 19.8293C24.3 18.9094 24.3 18.6027 24.3 16.3541C24.3 14.1054 24.3 13.7987 24.3 12.8788C24.3 11.9589 24.1 11.3456 23.9 10.8345C23.7 10.3235 23.4 9.81241 22.9 9.30135C22.4 8.79028 22 8.58585 21.4 8.27921C20.9 8.07479 20.3 7.97257 19.4 7.87036C18.5 7.87036 18.3 7.87036 16 7.87036Z" fill="white"/>
<path d="M16 11.9589C13.6 11.9589 11.7 13.9009 11.7 16.3541C11.7 18.8072 13.6 20.7492 16 20.7492C18.4 20.7492 20.3 18.8072 20.3 16.3541C20.3 13.9009 18.4 11.9589 16 11.9589ZM16 19.216C14.5 19.216 13.2 17.9895 13.2 16.3541C13.2 14.8209 14.4 13.4921 16 13.4921C17.5 13.4921 18.8 14.7186 18.8 16.3541C18.8 17.8872 17.5 19.216 16 19.216Z" fill="white"/>
<path d="M20.4 12.8788C20.9523 12.8788 21.4 12.4212 21.4 11.8567C21.4 11.2922 20.9523 10.8345 20.4 10.8345C19.8477 10.8345 19.4 11.2922 19.4 11.8567C19.4 12.4212 19.8477 12.8788 20.4 12.8788Z" fill="white"/>
</svg>
