<svg width="32" height="33" viewBox="0 0 32 33" fill="none" xmlns="http://www.w3.org/2000/svg">
<path d="M27 0H5C2.23858 0 0 2.28812 0 5.11066V27.5975C0 30.4201 2.23858 32.7082 5 32.7082H27C29.7614 32.7082 32 30.4201 32 27.5975V5.11066C32 2.28812 29.7614 0 27 0Z" fill="#030C10"/>
<path d="M23.6 12.3678C23.4 11.6523 22.9 11.1412 22.2 10.9368C21 10.6301 15.9 10.6301 15.9 10.6301C15.9 10.6301 10.9 10.6301 9.60001 10.9368C8.90001 11.1412 8.4 11.6523 8.2 12.3678C8 13.6965 8 16.3541 8 16.3541C8 16.3541 8 19.0116 8.3 20.3404C8.5 21.0559 9 21.5669 9.7 21.7714C10.9 22.078 16 22.078 16 22.078C16 22.078 21 22.078 22.3 21.7714C23 21.5669 23.5 21.0559 23.7 20.3404C24 19.0116 24 16.3541 24 16.3541C24 16.3541 24 13.6965 23.6 12.3678ZM14.4 18.8072V13.9009L18.6 16.3541L14.4 18.8072Z" fill="white"/>
</svg>
