<svg width="85" height="83" viewBox="0 0 85 83" fill="none" xmlns="http://www.w3.org/2000/svg">
<path d="M71.7188 0H13.2812C5.94622 0 0 5.80631 0 12.9688V70.0312C0 77.1937 5.94622 83 13.2812 83H71.7188C79.0538 83 85 77.1937 85 70.0312V12.9688C85 5.80631 79.0538 0 71.7188 0Z" fill="#030C10"/>
<path d="M63.75 41.5C63.75 30.0875 54.1875 20.75 42.5 20.75C30.8125 20.75 21.25 30.0875 21.25 41.5C21.25 51.875 28.9531 60.4344 39.0469 61.9906V47.4656H33.7344V41.5H39.0469V36.8312C39.0469 31.6437 42.2344 28.7906 47.0156 28.7906C49.4063 28.7906 51.7969 29.3094 51.7969 29.3094V34.4969H49.1406C46.4844 34.4969 45.6875 36.0531 45.6875 37.6094V41.5H51.5312L50.4688 47.4656H45.4219V62.25C56.0469 60.6937 63.75 51.875 63.75 41.5Z" fill="white"/>
</svg>
