<svg width="85" height="83" viewBox="0 0 85 83" fill="none" xmlns="http://www.w3.org/2000/svg">
<path d="M71.7188 0H13.2812C5.94622 0 0 5.80631 0 12.9688V70.0312C0 77.1937 5.94622 83 13.2812 83H71.7188C79.0538 83 85 77.1937 85 70.0312V12.9688C85 5.80631 79.0538 0 71.7188 0Z" fill="#030C10"/>
<path d="M42.5 23.8625C48.3437 23.8625 49.1406 23.8625 51.5312 23.8625C53.6562 23.8625 54.7187 24.3813 55.5156 24.6407C56.5781 25.1594 57.375 25.4188 58.1719 26.1969C58.9687 26.975 59.5 27.7532 59.7656 28.7907C60.0312 29.5688 60.2969 30.6063 60.5625 32.6813C60.5625 35.0157 60.5625 35.5344 60.5625 41.5C60.5625 47.4657 60.5625 47.9844 60.5625 50.3188C60.5625 52.3938 60.0312 53.4313 59.7656 54.2094C59.2344 55.2469 58.9687 56.025 58.1719 56.8032C57.375 57.5813 56.5781 58.1 55.5156 58.3594C54.7187 58.6188 53.6562 58.8782 51.5312 59.1375C49.1406 59.1375 48.6094 59.1375 42.5 59.1375C36.3906 59.1375 35.8594 59.1375 33.4688 59.1375C31.3438 59.1375 30.2813 58.6188 29.4844 58.3594C28.4219 57.8407 27.625 57.5813 26.8281 56.8032C26.0313 56.025 25.5 55.2469 25.2344 54.2094C24.9688 53.4313 24.7031 52.3938 24.4375 50.3188C24.4375 47.9844 24.4375 47.4657 24.4375 41.5C24.4375 35.5344 24.4375 35.0157 24.4375 32.6813C24.4375 30.6063 24.9688 29.5688 25.2344 28.7907C25.7656 27.7532 26.0313 26.975 26.8281 26.1969C27.625 25.4188 28.4219 24.9 29.4844 24.6407C30.2813 24.3813 31.3438 24.1219 33.4688 23.8625C35.8594 23.8625 36.6562 23.8625 42.5 23.8625ZM42.5 19.9719C36.3906 19.9719 35.8594 19.9719 33.4688 19.9719C31.0781 19.9719 29.4844 20.4907 28.1563 21.0094C26.8281 21.5282 25.5 22.3063 24.1719 23.6032C22.8438 24.9001 22.3125 25.9376 21.5156 27.4938C20.9844 28.7907 20.7187 30.3469 20.4531 32.6813C20.4531 35.0157 20.4531 35.7938 20.4531 41.5C20.4531 47.4657 20.4531 47.9844 20.4531 50.3188C20.4531 52.6532 20.9844 54.2094 21.5156 55.5063C22.0469 56.8032 22.8438 58.1 24.1719 59.3969C25.5 60.6938 26.5625 61.2126 28.1563 61.9907C29.4844 62.5094 31.0781 62.7688 33.4688 63.0282C35.8594 63.0282 36.6562 63.0282 42.5 63.0282C48.3437 63.0282 49.1406 63.0282 51.5312 63.0282C53.9219 63.0282 55.5156 62.5094 56.8437 61.9907C58.1719 61.4719 59.5 60.6938 60.8281 59.3969C62.1562 58.1 62.6875 57.0625 63.4844 55.5063C64.0156 54.2094 64.2812 52.6532 64.5469 50.3188C64.5469 47.9844 64.5469 47.2063 64.5469 41.5C64.5469 35.7938 64.5469 35.0157 64.5469 32.6813C64.5469 30.3469 64.0156 28.7907 63.4844 27.4938C62.9531 26.1969 62.1562 24.9001 60.8281 23.6032C59.5 22.3063 58.4375 21.7876 56.8437 21.0094C55.5156 20.4907 53.9219 20.2313 51.5312 19.9719C49.1406 19.9719 48.6094 19.9719 42.5 19.9719Z" fill="white"/>
<path d="M42.5 30.3469C36.125 30.3469 31.0781 35.275 31.0781 41.5C31.0781 47.725 36.125 52.6532 42.5 52.6532C48.875 52.6532 53.9219 47.725 53.9219 41.5C53.9219 35.275 48.875 30.3469 42.5 30.3469ZM42.5 48.7625C38.5156 48.7625 35.0625 45.65 35.0625 41.5C35.0625 37.6094 38.25 34.2375 42.5 34.2375C46.4844 34.2375 49.9375 37.35 49.9375 41.5C49.9375 45.3907 46.4844 48.7625 42.5 48.7625Z" fill="white"/>
<path d="M54.1875 32.6813C55.6545 32.6813 56.8437 31.52 56.8437 30.0876C56.8437 28.6551 55.6545 27.4938 54.1875 27.4938C52.7205 27.4938 51.5312 28.6551 51.5312 30.0876C51.5312 31.52 52.7205 32.6813 54.1875 32.6813Z" fill="white"/>
</svg>
