<svg width="85" height="81" viewBox="0 0 85 81" fill="none" xmlns="http://www.w3.org/2000/svg">
<path d="M71.7188 0H13.2812C5.94622 0 0 5.6664 0 12.6562V68.3438C0 75.3336 5.94622 81 13.2812 81H71.7188C79.0538 81 85 75.3336 85 68.3438V12.6562C85 5.6664 79.0538 0 71.7188 0Z" fill="#030C10"/>
<path d="M21.5154 39.7616C32.9239 35.025 40.5313 31.9024 44.3377 30.3937C55.2058 26.086 57.4641 25.3377 58.936 25.3127C59.2597 25.3076 59.9836 25.384 60.4524 25.7466C60.8484 26.0527 60.9573 26.4663 61.0094 26.7565C61.0615 27.0468 61.1265 27.708 61.0749 28.2246C60.4859 34.1215 57.9376 48.4317 56.6411 55.0363C56.0925 57.8309 55.0124 58.7679 53.9666 58.8596C51.694 59.0589 49.9683 57.4284 47.7672 56.0534C44.3228 53.9019 42.377 52.5625 39.0337 50.463C35.1699 48.0366 37.6746 46.7031 39.8766 44.5237C40.4528 43.9533 50.466 35.2741 50.6598 34.4868C50.6841 34.3883 50.7066 34.0213 50.4777 33.8275C50.2489 33.6337 49.9112 33.6999 49.6675 33.7526C49.322 33.8274 43.8196 37.2931 33.1603 44.1498C31.5985 45.1718 30.1838 45.6698 28.9164 45.6437C27.5191 45.6149 24.8312 44.8908 22.8331 44.2718C20.3823 43.5127 18.4344 43.1113 18.604 41.822C18.6924 41.1504 19.6628 40.4637 21.5154 39.7616Z" fill="white"/>
</svg>
