<svg width="85" height="83" viewBox="0 0 85 83" fill="none" xmlns="http://www.w3.org/2000/svg">
<path d="M71.7188 0H13.2812C5.94622 0 0 5.80631 0 12.9688V70.0312C0 77.1937 5.94622 83 13.2812 83H71.7188C79.0538 83 85 77.1937 85 70.0312V12.9688C85 5.80631 79.0538 0 71.7188 0Z" fill="#030C10"/>
<path d="M62.6875 31.3844C62.1563 29.5687 60.8282 28.2719 58.9688 27.7531C55.7813 26.975 42.2344 26.975 42.2344 26.975C42.2344 26.975 28.9531 26.975 25.5 27.7531C23.6406 28.2719 22.3125 29.5687 21.7812 31.3844C21.25 34.7562 21.25 41.5 21.25 41.5C21.25 41.5 21.25 48.2437 22.0469 51.6156C22.5781 53.4312 23.9062 54.7281 25.7656 55.2468C28.9531 56.025 42.5 56.025 42.5 56.025C42.5 56.025 55.7812 56.025 59.2343 55.2468C61.0937 54.7281 62.4219 53.4312 62.9532 51.6156C63.75 48.2437 63.75 41.5 63.75 41.5C63.75 41.5 63.75 34.7562 62.6875 31.3844ZM38.25 47.725V35.275L49.4063 41.5L38.25 47.725Z" fill="white"/>
</svg>
